w1b400r50.ufo
<glyph name="_5" format="2">
  <advance width="1"/>
  <unicode hex="0105"/>
  
  <outline>
    <component base="cap" xOffset="0" yOffset="0.000" />
    <component base="cap" xOffset="0" yOffset="-350.000" />
    <contour>
      <point x="0.000" y="200.000" type="line"/>
      <point x="0.000" y="-150.000" type="line"/>
      <point x="400.000" y="-150.000" type="line"/>
      <point x="400.000" y="200.000" type="line"/>
    </contour>
  </outline>
</glyph>
<glyph name="_18" format="2">
  <advance width="1"/>
  <unicode hex="0112"/>
  <unicode hex="006A"/>
  <outline>
    <component base="cap" xOffset="0" yOffset="0.000" />
    <component base="cap" xOffset="0" yOffset="-220.000" />
    <contour>
      <point x="0.000" y="200.000" type="line"/>
      <point x="0.000" y="-20.000" type="line"/>
      <point x="400.000" y="-20.000" type="line"/>
      <point x="400.000" y="200.000" type="line"/>
    </contour>
  </outline>
</glyph>
<glyph name="_19" format="2">
  <advance width="1"/>
  <unicode hex="0113"/>
  
  <outline>
    <component base="cap" xOffset="0" yOffset="0" />
    <component base="cap" xOffset="0" yOffset="-210" />
    <contour>
      <point x="0" y="200" type="line"/>
      <point x="0" y="-10" type="line"/>
      <point x="400" y="-10" type="line"/>
      <point x="400" y="200" type="line"/>
    </contour>
  </outline>
</glyph>
<glyph name="_23" format="2">
  <advance width="1"/>
  <unicode hex="0117"/>
  
  <outline>
    <component base="cap" xOffset="0" yOffset="0.000" />
    <component base="cap" xOffset="0" yOffset="-170.000" />
    <contour>
      <point x="0.000" y="200.000" type="line"/>
      <point x="0.000" y="30.000" type="line"/>
      <point x="400.000" y="30.000" type="line"/>
      <point x="400.000" y="200.000" type="line"/>
    </contour>
  </outline>
</glyph>
<glyph name="_24" format="2">
  <advance width="1"/>
  <unicode hex="0118"/>
  <unicode hex="006D"/>
  <outline>
    <component base="cap" xOffset="0" yOffset="0" />
    <component base="cap" xOffset="0" yOffset="-160" />
    <contour>
      <point x="0" y="200" type="line"/>
      <point x="0" y="40" type="line"/>
      <point x="400" y="40" type="line"/>
      <point x="400" y="200" type="line"/>
    </contour>
  </outline>
</glyph>
<glyph name="_31" format="2">
  <advance width="1"/>
  <unicode hex="011F"/>
  
  <outline>
    <component base="cap" xOffset="0" yOffset="0.000" />
    <component base="cap" xOffset="0" yOffset="-90.000" />
    <contour>
      <point x="0.000" y="200.000" type="line"/>
      <point x="0.000" y="110.000" type="line"/>
      <point x="400.000" y="110.000" type="line"/>
      <point x="400.000" y="200.000" type="line"/>
    </contour>
  </outline>
</glyph>
<glyph name="_50" format="2">
  <advance width="1"/>
  <unicode hex="0132"/>
  <unicode hex="0035"/><unicode hex="007A"/>
  <outline>
    <component base="cap" xOffset="0" yOffset="0" />
    <component base="cap" xOffset="0" yOffset="100" />
    <contour>
      <point x="0" y="200" type="line"/>
      <point x="0" y="300" type="line"/>
      <point x="400" y="300" type="line"/>
      <point x="400" y="200" type="line"/>
    </contour>
  </outline>
</glyph>
<glyph name="_51" format="2">
  <advance width="1"/>
  <unicode hex="0133"/>
  
  <outline>
    <component base="cap" xOffset="0" yOffset="0.000" />
    <component base="cap" xOffset="0" yOffset="110.000" />
    <contour>
      <point x="0.000" y="200.000" type="line"/>
      <point x="0.000" y="310.000" type="line"/>
      <point x="400.000" y="310.000" type="line"/>
      <point x="400.000" y="200.000" type="line"/>
    </contour>
  </outline>
</glyph>
<glyph name="_55" format="2">
  <advance width="1"/>
  <unicode hex="0137"/>
  
  <outline>
    <component base="cap" xOffset="0" yOffset="0.000" />
    <component base="cap" xOffset="0" yOffset="150.000" />
    <contour>
      <point x="0.000" y="200.000" type="line"/>
      <point x="0.000" y="350.000" type="line"/>
      <point x="400.000" y="350.000" type="line"/>
      <point x="400.000" y="200.000" type="line"/>
    </contour>
  </outline>
</glyph>
<glyph name="_59" format="2">
  <advance width="1"/>
  <unicode hex="013B"/>
  
  <outline>
    <component base="cap" xOffset="0" yOffset="0.000" />
    <component base="cap" xOffset="0" yOffset="190.000" />
    <contour>
      <point x="0.000" y="200.000" type="line"/>
      <point x="0.000" y="390.000" type="line"/>
      <point x="400.000" y="390.000" type="line"/>
      <point x="400.000" y="200.000" type="line"/>
    </contour>
  </outline>
</glyph>
<glyph name="_65" format="2">
  <advance width="1"/>
  <unicode hex="0141"/>
  
  <outline>
    <component base="cap" xOffset="0" yOffset="0" />
    <component base="cap" xOffset="0" yOffset="250" />
    <contour>
      <point x="0" y="200" type="line"/>
      <point x="0" y="450" type="line"/>
      <point x="400" y="450" type="line"/>
      <point x="400" y="200" type="line"/>
    </contour>
  </outline>
</glyph>
<glyph name="_66" format="2">
  <advance width="1"/>
  <unicode hex="0142"/>
  <unicode hex="0048"/>
  <outline>
    <component base="cap" xOffset="0" yOffset="0.000" />
    <component base="cap" xOffset="0" yOffset="260.000" />
    <contour>
      <point x="0.000" y="200.000" type="line"/>
      <point x="0.000" y="460.000" type="line"/>
      <point x="400.000" y="460.000" type="line"/>
      <point x="400.000" y="200.000" type="line"/>
    </contour>
  </outline>
</glyph>
<glyph name="_71" format="2">
  <advance width="1"/>
  <unicode hex="0147"/>
  
  <outline>
    <component base="cap" xOffset="0" yOffset="0.000" />
    <component base="cap" xOffset="0" yOffset="310.000" />
    <contour>
      <point x="0.000" y="200.000" type="line"/>
      <point x="0.000" y="510.000" type="line"/>
      <point x="400.000" y="510.000" type="line"/>
      <point x="400.000" y="200.000" type="line"/>
    </contour>
  </outline>
</glyph>
<glyph name="_72" format="2">
  <advance width="1"/>
  <unicode hex="0148"/>
  <unicode hex="2586"/><unicode hex="004B"/>
  <outline>
    <component base="cap" xOffset="0" yOffset="0.000" />
    <component base="cap" xOffset="0" yOffset="320.000" />
    <contour>
      <point x="0.000" y="200.000" type="line"/>
      <point x="0.000" y="520.000" type="line"/>
      <point x="400.000" y="520.000" type="line"/>
      <point x="400.000" y="200.000" type="line"/>
    </contour>
  </outline>
</glyph>
<glyph name="_80" format="2">
  <advance width="1"/>
  <unicode hex="0150"/>
  <unicode hex="0038"/><unicode hex="004F"/>
  <outline>
    <component base="cap" xOffset="0" yOffset="0" />
    <component base="cap" xOffset="0" yOffset="400" />
    <contour>
      <point x="0" y="200" type="line"/>
      <point x="0" y="600" type="line"/>
      <point x="400" y="600" type="line"/>
      <point x="400" y="200" type="line"/>
    </contour>
  </outline>
</glyph>
<glyph name="_88" format="2">
  <advance width="1"/>
  <unicode hex="0158"/>
  <unicode hex="0053"/>
  <outline>
    <component base="cap" xOffset="0" yOffset="0" />
    <component base="cap" xOffset="0" yOffset="480" />
    <contour>
      <point x="0" y="200" type="line"/>
      <point x="0" y="680" type="line"/>
      <point x="400" y="680" type="line"/>
      <point x="400" y="200" type="line"/>
    </contour>
  </outline>
</glyph>
<glyph name="_94" format="2">
  <advance width="1"/>
  <unicode hex="015E"/>
  <unicode hex="0056"/>
  <outline>
    <component base="cap" xOffset="0" yOffset="0.000" />
    <component base="cap" xOffset="0" yOffset="540.000" />
    <contour>
      <point x="0.000" y="200.000" type="line"/>
      <point x="0.000" y="740.000" type="line"/>
      <point x="400.000" y="740.000" type="line"/>
      <point x="400.000" y="200.000" type="line"/>
    </contour>
  </outline>
</glyph>
<glyph name="_103" format="2">
  <advance width="1"/>
  <unicode hex="0167"/>
  
  <outline>
    <component base="cap" xOffset="0" yOffset="0.000" />
    <component base="cap" xOffset="0" yOffset="630.000" />
    <contour>
      <point x="0.000" y="200.000" type="line"/>
      <point x="0.000" y="830.000" type="line"/>
      <point x="400.000" y="830.000" type="line"/>
      <point x="400.000" y="200.000" type="line"/>
    </contour>
  </outline>
</glyph>
<glyph name="_106" format="2">
  <advance width="1"/>
  <unicode hex="016A"/>
  
  <outline>
    <component base="cap" xOffset="0" yOffset="0.000" />
    <component base="cap" xOffset="0" yOffset="660.000" />
    <contour>
      <point x="0.000" y="200.000" type="line"/>
      <point x="0.000" y="860.000" type="line"/>
      <point x="400.000" y="860.000" type="line"/>
      <point x="400.000" y="200.000" type="line"/>
    </contour>
  </outline>
</glyph>
<glyph name="_1.center" format="2">
  <advance width="1"/>
  <unicode hex="0401"/>
  
  <outline>
    <component base="cap" xOffset="0" yOffset="495" />
    <component base="cap" xOffset="0" yOffset="105" />
    <contour>
      <point x="0" y="695" type="line"/>
      <point x="0" y="305" type="line"/>
      <point x="400" y="305" type="line"/>
      <point x="400" y="695" type="line"/>
    </contour>
  </outline>
</glyph>
<glyph name="_4.center" format="2">
  <advance width="1"/>
  <unicode hex="0404"/>
  
  <outline>
    <component base="cap" xOffset="0" yOffset="480.000" />
    <component base="cap" xOffset="0" yOffset="120.000" />
    <contour>
      <point x="0.000" y="680.000" type="line"/>
      <point x="0.000" y="320.000" type="line"/>
      <point x="400.000" y="320.000" type="line"/>
      <point x="400.000" y="680.000" type="line"/>
    </contour>
  </outline>
</glyph>
<glyph name="_7.center" format="2">
  <advance width="1"/>
  <unicode hex="0407"/>
  
  <outline>
    <component base="cap" xOffset="0" yOffset="465.000" />
    <component base="cap" xOffset="0" yOffset="135.000" />
    <contour>
      <point x="0.000" y="665.000" type="line"/>
      <point x="0.000" y="335.000" type="line"/>
      <point x="400.000" y="335.000" type="line"/>
      <point x="400.000" y="665.000" type="line"/>
    </contour>
  </outline>
</glyph>
<glyph name="_10.center" format="2">
  <advance width="1"/>
  <unicode hex="040A"/>
  
  <outline>
    <component base="cap" xOffset="0" yOffset="450.000" />
    <component base="cap" xOffset="0" yOffset="150.000" />
    <contour>
      <point x="0.000" y="650.000" type="line"/>
      <point x="0.000" y="350.000" type="line"/>
      <point x="400.000" y="350.000" type="line"/>
      <point x="400.000" y="650.000" type="line"/>
    </contour>
  </outline>
</glyph>
<glyph name="_13.center" format="2">
  <advance width="1"/>
  <unicode hex="040D"/>
  
  <outline>
    <component base="cap" xOffset="0" yOffset="435.000" />
    <component base="cap" xOffset="0" yOffset="165.000" />
    <contour>
      <point x="0.000" y="635.000" type="line"/>
      <point x="0.000" y="365.000" type="line"/>
      <point x="400.000" y="365.000" type="line"/>
      <point x="400.000" y="635.000" type="line"/>
    </contour>
  </outline>
</glyph>
<glyph name="_14.center" format="2">
  <advance width="1"/>
  <unicode hex="040E"/>
  
  <outline>
    <component base="cap" xOffset="0" yOffset="430.000" />
    <component base="cap" xOffset="0" yOffset="170.000" />
    <contour>
      <point x="0.000" y="630.000" type="line"/>
      <point x="0.000" y="370.000" type="line"/>
      <point x="400.000" y="370.000" type="line"/>
      <point x="400.000" y="630.000" type="line"/>
    </contour>
  </outline>
</glyph>
<glyph name="_16.center" format="2">
  <advance width="1"/>
  <unicode hex="0410"/>
  
  <outline>
    <component base="cap" xOffset="0" yOffset="420" />
    <component base="cap" xOffset="0" yOffset="180" />
    <contour>
      <point x="0" y="620" type="line"/>
      <point x="0" y="380" type="line"/>
      <point x="400" y="380" type="line"/>
      <point x="400" y="620" type="line"/>
    </contour>
  </outline>
</glyph>
<glyph name="_25.center" format="2">
  <advance width="1"/>
  <unicode hex="0419"/>
  
  <outline>
    <component base="cap" xOffset="0" yOffset="375" />
    <component base="cap" xOffset="0" yOffset="225" />
    <contour>
      <point x="0" y="575" type="line"/>
      <point x="0" y="425" type="line"/>
      <point x="400" y="425" type="line"/>
      <point x="400" y="575" type="line"/>
    </contour>
  </outline>
</glyph>
<glyph name="_26.center" format="2">
  <advance width="1"/>
  <unicode hex="041A"/>
  
  <outline>
    <component base="cap" xOffset="0" yOffset="370.000" />
    <component base="cap" xOffset="0" yOffset="230.000" />
    <contour>
      <point x="0.000" y="570.000" type="line"/>
      <point x="0.000" y="430.000" type="line"/>
      <point x="400.000" y="430.000" type="line"/>
      <point x="400.000" y="570.000" type="line"/>
    </contour>
  </outline>
</glyph>
<glyph name="_31.center" format="2">
  <advance width="1"/>
  <unicode hex="041F"/>
  
  <outline>
    <component base="cap" xOffset="0" yOffset="345.000" />
    <component base="cap" xOffset="0" yOffset="255.000" />
    <contour>
      <point x="0.000" y="545.000" type="line"/>
      <point x="0.000" y="455.000" type="line"/>
      <point x="400.000" y="455.000" type="line"/>
      <point x="400.000" y="545.000" type="line"/>
    </contour>
  </outline>
</glyph>
<glyph name="_35.center" format="2">
  <advance width="1"/>
  <unicode hex="0423"/>
  
  <outline>
    <component base="cap" xOffset="0" yOffset="325.000" />
    <component base="cap" xOffset="0" yOffset="275.000" />
    <contour>
      <point x="0.000" y="525.000" type="line"/>
      <point x="0.000" y="475.000" type="line"/>
      <point x="400.000" y="475.000" type="line"/>
      <point x="400.000" y="525.000" type="line"/>
    </contour>
  </outline>
</glyph>
<glyph name="_36.center" format="2">
  <advance width="1"/>
  <unicode hex="0424"/>
  
  <outline>
    <component base="cap" xOffset="0" yOffset="320" />
    <component base="cap" xOffset="0" yOffset="280" />
    <contour>
      <point x="0" y="520" type="line"/>
      <point x="0" y="480" type="line"/>
      <point x="400" y="480" type="line"/>
      <point x="400" y="520" type="line"/>
    </contour>
  </outline>
</glyph>
<glyph name="_37.center" format="2">
  <advance width="1"/>
  <unicode hex="0425"/>
  
  <outline>
    <component base="cap" xOffset="0" yOffset="315.000" />
    <component base="cap" xOffset="0" yOffset="285.000" />
    <contour>
      <point x="0.000" y="515.000" type="line"/>
      <point x="0.000" y="485.000" type="line"/>
      <point x="400.000" y="485.000" type="line"/>
      <point x="400.000" y="515.000" type="line"/>
    </contour>
  </outline>
</glyph>
<glyph name="_38.center" format="2">
  <advance width="1"/>
  <unicode hex="0426"/>
  
  <outline>
    <component base="cap" xOffset="0" yOffset="310.000" />
    <component base="cap" xOffset="0" yOffset="290.000" />
    <contour>
      <point x="0.000" y="510.000" type="line"/>
      <point x="0.000" y="490.000" type="line"/>
      <point x="400.000" y="490.000" type="line"/>
      <point x="400.000" y="510.000" type="line"/>
    </contour>
  </outline>
</glyph>
<glyph name="_45.center" format="2">
  <advance width="1"/>
  <unicode hex="042D"/>
  
  <outline>
    <component base="cap" xOffset="0" yOffset="275" />
    <component base="cap" xOffset="0" yOffset="325" />
    <contour>
      <point x="0" y="475" type="line"/>
      <point x="0" y="525" type="line"/>
      <point x="400" y="525" type="line"/>
      <point x="400" y="475" type="line"/>
    </contour>
  </outline>
</glyph>
<glyph name="_48.center" format="2">
  <advance width="1"/>
  <unicode hex="0430"/>
  
  <outline>
    <component base="cap" xOffset="0" yOffset="260.000" />
    <component base="cap" xOffset="0" yOffset="340.000" />
    <contour>
      <point x="0.000" y="460.000" type="line"/>
      <point x="0.000" y="540.000" type="line"/>
      <point x="400.000" y="540.000" type="line"/>
      <point x="400.000" y="460.000" type="line"/>
    </contour>
  </outline>
</glyph>
<glyph name="_53.center" format="2">
  <advance width="1"/>
  <unicode hex="0435"/>
  
  <outline>
    <component base="cap" xOffset="0" yOffset="235.000" />
    <component base="cap" xOffset="0" yOffset="365.000" />
    <contour>
      <point x="0.000" y="435.000" type="line"/>
      <point x="0.000" y="565.000" type="line"/>
      <point x="400.000" y="565.000" type="line"/>
      <point x="400.000" y="435.000" type="line"/>
    </contour>
  </outline>
</glyph>
<glyph name="_57.center" format="2">
  <advance width="1"/>
  <unicode hex="0439"/>
  
  <outline>
    <component base="cap" xOffset="0" yOffset="215.000" />
    <component base="cap" xOffset="0" yOffset="385.000" />
    <contour>
      <point x="0.000" y="415.000" type="line"/>
      <point x="0.000" y="585.000" type="line"/>
      <point x="400.000" y="585.000" type="line"/>
      <point x="400.000" y="415.000" type="line"/>
    </contour>
  </outline>
</glyph>
<glyph name="_58.center" format="2">
  <advance width="1"/>
  <unicode hex="043A"/>
  
  <outline>
    <component base="cap" xOffset="0" yOffset="210.000" />
    <component base="cap" xOffset="0" yOffset="390.000" />
    <contour>
      <point x="0.000" y="410.000" type="line"/>
      <point x="0.000" y="590.000" type="line"/>
      <point x="400.000" y="590.000" type="line"/>
      <point x="400.000" y="410.000" type="line"/>
    </contour>
  </outline>
</glyph>
<glyph name="_60.center" format="2">
  <advance width="1"/>
  <unicode hex="043C"/>
  
  <outline>
    <component base="cap" xOffset="0" yOffset="200" />
    <component base="cap" xOffset="0" yOffset="400" />
    <contour>
      <point x="0" y="400" type="line"/>
      <point x="0" y="600" type="line"/>
      <point x="400" y="600" type="line"/>
      <point x="400" y="400" type="line"/>
    </contour>
  </outline>
</glyph>
<glyph name="_68.center" format="2">
  <advance width="1"/>
  <unicode hex="0444"/>
  
  <outline>
    <component base="cap" xOffset="0" yOffset="160.000" />
    <component base="cap" xOffset="0" yOffset="440.000" />
    <contour>
      <point x="0.000" y="360.000" type="line"/>
      <point x="0.000" y="640.000" type="line"/>
      <point x="400.000" y="640.000" type="line"/>
      <point x="400.000" y="360.000" type="line"/>
    </contour>
  </outline>
</glyph>
<glyph name="_72.center" format="2">
  <advance width="1"/>
  <unicode hex="0448"/>
  
  <outline>
    <component base="cap" xOffset="0" yOffset="140.000" />
    <component base="cap" xOffset="0" yOffset="460.000" />
    <contour>
      <point x="0.000" y="340.000" type="line"/>
      <point x="0.000" y="660.000" type="line"/>
      <point x="400.000" y="660.000" type="line"/>
      <point x="400.000" y="340.000" type="line"/>
    </contour>
  </outline>
</glyph>
<glyph name="_76.center" format="2">
  <advance width="1"/>
  <unicode hex="044C"/>
  
  <outline>
    <component base="cap" xOffset="0" yOffset="120.000" />
    <component base="cap" xOffset="0" yOffset="480.000" />
    <contour>
      <point x="0.000" y="320.000" type="line"/>
      <point x="0.000" y="680.000" type="line"/>
      <point x="400.000" y="680.000" type="line"/>
      <point x="400.000" y="320.000" type="line"/>
    </contour>
  </outline>
</glyph>
<glyph name="_83.center" format="2">
  <advance width="1"/>
  <unicode hex="0453"/>
  
  <outline>
    <component base="cap" xOffset="0" yOffset="85.000" />
    <component base="cap" xOffset="0" yOffset="515.000" />
    <contour>
      <point x="0.000" y="285.000" type="line"/>
      <point x="0.000" y="715.000" type="line"/>
      <point x="400.000" y="715.000" type="line"/>
      <point x="400.000" y="285.000" type="line"/>
    </contour>
  </outline>
</glyph>
<glyph name="_85.center" format="2">
  <advance width="1"/>
  <unicode hex="0455"/>
  
  <outline>
    <component base="cap" xOffset="0" yOffset="75" />
    <component base="cap" xOffset="0" yOffset="525" />
    <contour>
      <point x="0" y="275" type="line"/>
      <point x="0" y="725" type="line"/>
      <point x="400" y="725" type="line"/>
      <point x="400" y="275" type="line"/>
    </contour>
  </outline>
</glyph>
<glyph name="_89.center" format="2">
  <advance width="1"/>
  <unicode hex="0459"/>
  
  <outline>
    <component base="cap" xOffset="0" yOffset="55.000" />
    <component base="cap" xOffset="0" yOffset="545.000" />
    <contour>
      <point x="0.000" y="255.000" type="line"/>
      <point x="0.000" y="745.000" type="line"/>
      <point x="400.000" y="745.000" type="line"/>
      <point x="400.000" y="255.000" type="line"/>
    </contour>
  </outline>
</glyph>
<glyph name="_95.center" format="2">
  <advance width="1"/>
  <unicode hex="045F"/>
  
  <outline>
    <component base="cap" xOffset="0" yOffset="25.000" />
    <component base="cap" xOffset="0" yOffset="575.000" />
    <contour>
      <point x="0.000" y="225.000" type="line"/>
      <point x="0.000" y="775.000" type="line"/>
      <point x="400.000" y="775.000" type="line"/>
      <point x="400.000" y="225.000" type="line"/>
    </contour>
  </outline>
</glyph>
<glyph name="_99.center" format="2">
  <advance width="1"/>
  <unicode hex="0463"/>
  
  <outline>
    <component base="cap" xOffset="0" yOffset="5" />
    <component base="cap" xOffset="0" yOffset="595" />
    <contour>
      <point x="0" y="205" type="line"/>
      <point x="0" y="795" type="line"/>
      <point x="400" y="795" type="line"/>
      <point x="400" y="205" type="line"/>
    </contour>
  </outline>
</glyph>
<glyph name="_100.center" format="2">
  <advance width="1"/>
  <unicode hex="0464"/>
  
  <outline>
    <component base="cap" xOffset="0" yOffset="0.000" />
    <component base="cap" xOffset="0" yOffset="600.000" />
    <contour>
      <point x="0.000" y="200.000" type="line"/>
      <point x="0.000" y="800.000" type="line"/>
      <point x="400.000" y="800.000" type="line"/>
      <point x="400.000" y="200.000" type="line"/>
    </contour>
  </outline>
</glyph>
<glyph name="_106.center" format="2">
  <advance width="1"/>
  <unicode hex="046A"/>
  
  <outline>
    <component base="cap" xOffset="0" yOffset="-30.000" />
    <component base="cap" xOffset="0" yOffset="630.000" />
    <contour>
      <point x="0.000" y="170.000" type="line"/>
      <point x="0.000" y="830.000" type="line"/>
      <point x="400.000" y="830.000" type="line"/>
      <point x="400.000" y="170.000" type="line"/>
    </contour>
  </outline>
</glyph>
<glyph name="_107.center" format="2">
  <advance width="1"/>
  <unicode hex="046B"/>
  
  <outline>
    <component base="cap" xOffset="0" yOffset="-35.000" />
    <component base="cap" xOffset="0" yOffset="635.000" />
    <contour>
      <point x="0.000" y="165.000" type="line"/>
      <point x="0.000" y="835.000" type="line"/>
      <point x="400.000" y="835.000" type="line"/>
      <point x="400.000" y="165.000" type="line"/>
    </contour>
  </outline>
</glyph>
<glyph name="_1.clip" format="2">
  <advance width="1"/>
  
  <outline>
    <contour>
        <point x="0.000" y="7.750"/>

        <point x="2.250" y="10.000"/>
        <point x="5.000" y="10.000" type="curve" smooth="yes"/>
        <point x="395.000" y="10.000" type="line"/>
        <point x="397.750" y="10.000"/>

        <point x="400.000" y="7.750"/>
        <point x="400.000" y="5.000" type="curve" smooth="yes"/>
        <point x="400.000" y="5.000" type="line"/>
        <point x="400.000" y="2.250"/>

        <point x="397.750" y="0.000"/>
        <point x="395.000" y="0.000" type="curve" smooth="yes"/>
        <point x="5.000" y="0.000" type="line"/>
        <point x="2.250" y="0.000"/>

        <point x="0.000" y="2.250"/>
        <point x="0.000" y="5.000" type="curve" smooth="yes"/>
        <point x="0.000" y="5.000" type="line"/>
    </contour>
  </outline>
</glyph>
<glyph name="_23.clip" format="2">
  <advance width="1"/>
  
  <outline>
    <contour>
        <point x="0.000" y="178.250"/>

        <point x="51.750" y="230.000"/>
        <point x="115.000" y="230.000" type="curve" smooth="yes"/>
        <point x="285.000" y="230.000" type="line"/>
        <point x="348.250" y="230.000"/>

        <point x="400.000" y="178.250"/>
        <point x="400.000" y="115.000" type="curve" smooth="yes"/>
        <point x="400.000" y="115.000" type="line"/>
        <point x="400.000" y="51.750"/>

        <point x="348.250" y="0.000"/>
        <point x="285.000" y="0.000" type="curve" smooth="yes"/>
        <point x="115.000" y="0.000" type="line"/>
        <point x="51.750" y="0.000"/>

        <point x="0.000" y="51.750"/>
        <point x="0.000" y="115.000" type="curve" smooth="yes"/>
        <point x="0.000" y="115.000" type="line"/>
    </contour>
  </outline>
</glyph>
<glyph name="_33.clip.center" format="2">
  <advance width="1"/>
  
  <outline>
    <contour>
        <point x="0.000" y="590.750"/>

        <point x="74.250" y="665.000"/>
        <point x="165.000" y="665.000" type="curve" smooth="yes"/>
        <point x="235.000" y="665.000" type="line"/>
        <point x="325.750" y="665.000"/>

        <point x="400.000" y="590.750"/>
        <point x="400.000" y="500.000" type="curve" smooth="yes"/>
        <point x="400.000" y="500.000" type="line"/>
        <point x="400.000" y="409.250"/>

        <point x="325.750" y="335.000"/>
        <point x="235.000" y="335.000" type="curve" smooth="yes"/>
        <point x="165.000" y="335.000" type="line"/>
        <point x="74.250" y="335.000"/>

        <point x="0.000" y="409.250"/>
        <point x="0.000" y="500.000" type="curve" smooth="yes"/>
        <point x="0.000" y="500.000" type="line"/>
    </contour>
  </outline>
</glyph>
<glyph name="_55.clip" format="2">
  <advance width="1"/>
  
  <outline>
    <contour>
        <point x="0.000" y="426.250"/>

        <point x="123.750" y="550.000"/>
        <point x="275.000" y="550.000" type="curve" smooth="yes"/>
        <point x="125.000" y="550.000" type="line"/>
        <point x="276.250" y="550.000"/>

        <point x="400.000" y="426.250"/>
        <point x="400.000" y="275.000" type="curve" smooth="yes"/>
        <point x="400.000" y="275.000" type="line"/>
        <point x="400.000" y="123.750"/>

        <point x="276.250" y="0.000"/>
        <point x="125.000" y="0.000" type="curve" smooth="yes"/>
        <point x="275.000" y="0.000" type="line"/>
        <point x="123.750" y="0.000"/>

        <point x="0.000" y="123.750"/>
        <point x="0.000" y="275.000" type="curve" smooth="yes"/>
        <point x="0.000" y="275.000" type="line"/>
    </contour>
  </outline>
</glyph>
<glyph name="_62.clip.center" format="2">
  <advance width="1"/>
  
  <outline>
    <contour>
        <point x="0.000" y="670.500"/>

        <point x="139.500" y="810.000"/>
        <point x="310.000" y="810.000" type="curve" smooth="yes"/>
        <point x="90.000" y="810.000" type="line"/>
        <point x="260.500" y="810.000"/>

        <point x="400.000" y="670.500"/>
        <point x="400.000" y="500.000" type="curve" smooth="yes"/>
        <point x="400.000" y="500.000" type="line"/>
        <point x="400.000" y="329.500"/>

        <point x="260.500" y="190.000"/>
        <point x="90.000" y="190.000" type="curve" smooth="yes"/>
        <point x="310.000" y="190.000" type="line"/>
        <point x="139.500" y="190.000"/>

        <point x="0.000" y="329.500"/>
        <point x="0.000" y="500.000" type="curve" smooth="yes"/>
        <point x="0.000" y="500.000" type="line"/>
    </contour>
  </outline>
</glyph>
<glyph name="_75.clip.center" format="2">
  <advance width="1"/>
  
  <outline>
    <contour>
        <point x="0.000" y="706.250"/>

        <point x="168.750" y="875.000"/>
        <point x="375.000" y="875.000" type="curve" smooth="yes"/>
        <point x="25.000" y="875.000" type="line"/>
        <point x="231.250" y="875.000"/>

        <point x="400.000" y="706.250"/>
        <point x="400.000" y="500.000" type="curve" smooth="yes"/>
        <point x="400.000" y="500.000" type="line"/>
        <point x="400.000" y="293.750"/>

        <point x="231.250" y="125.000"/>
        <point x="25.000" y="125.000" type="curve" smooth="yes"/>
        <point x="375.000" y="125.000" type="line"/>
        <point x="168.750" y="125.000"/>

        <point x="0.000" y="293.750"/>
        <point x="0.000" y="500.000" type="curve" smooth="yes"/>
        <point x="0.000" y="500.000" type="line"/>
    </contour>
  </outline>
</glyph>
<glyph name="_79.clip.center" format="2">
  <advance width="1"/>
  
  <outline>
    <contour>
        <point x="0.000" y="717.250"/>

        <point x="177.750" y="895.000"/>
        <point x="395.000" y="895.000" type="curve" smooth="yes"/>
        <point x="5.000" y="895.000" type="line"/>
        <point x="222.250" y="895.000"/>

        <point x="400.000" y="717.250"/>
        <point x="400.000" y="500.000" type="curve" smooth="yes"/>
        <point x="400.000" y="500.000" type="line"/>
        <point x="400.000" y="282.750"/>

        <point x="222.250" y="105.000"/>
        <point x="5.000" y="105.000" type="curve" smooth="yes"/>
        <point x="395.000" y="105.000" type="line"/>
        <point x="177.750" y="105.000"/>

        <point x="0.000" y="282.750"/>
        <point x="0.000" y="500.000" type="curve" smooth="yes"/>
        <point x="0.000" y="500.000" type="line"/>
    </contour>
  </outline>
</glyph>
<glyph name="_89.clip" format="2">
  <advance width="1"/>
  
  <outline>
    <contour>
        <point x="0.000" y="689.750"/>

        <point x="200.250" y="890.000"/>
        <point x="445.000" y="890.000" type="curve" smooth="yes"/>
        <point x="-45.000" y="890.000" type="line"/>
        <point x="199.750" y="890.000"/>

        <point x="400.000" y="689.750"/>
        <point x="400.000" y="445.000" type="curve" smooth="yes"/>
        <point x="400.000" y="445.000" type="line"/>
        <point x="400.000" y="200.250"/>

        <point x="199.750" y="0.000"/>
        <point x="-45.000" y="0.000" type="curve" smooth="yes"/>
        <point x="445.000" y="0.000" type="line"/>
        <point x="200.250" y="0.000"/>

        <point x="0.000" y="200.250"/>
        <point x="0.000" y="445.000" type="curve" smooth="yes"/>
        <point x="0.000" y="445.000" type="line"/>
    </contour>
  </outline>
</glyph>
